<svg viewBox="0 -67 512 512" xmlns="http://www.w3.org/2000/svg"><path d="m370.050781 74.855469c-3.058593 2.792969-3.273437 7.535156-.480469 10.59375 25.902344 28.375 40.167969 65.175781 40.167969 103.617187 0 53.914063-28.425781 103.980469-74.46875 131.742188l-15.84375-18.417969c18.667969-10.460937 34.507813-25.375 46.09375-43.515625 13.308594-20.835938 20.339844-44.976562 20.339844-69.808594 0-71.605468-58.253906-129.859375-129.855469-129.859375-71.605468 0-129.863281 58.257813-129.863281 129.859375 0 25.003906 7.125 49.285156 20.601563 70.214844 11.570312 17.96875 27.304687 32.738281 45.828124 43.117188l-15.835937 18.410156c-17.503906-10.574219-33.023437-24.785156-45.070313-41.324219-2.441406-3.347656-7.132812-4.085937-10.480468-1.644531-3.347656 2.4375-4.085938 7.128906-1.644532 10.476562 12.765626 17.527344 29.089844 32.660156 47.496094 44.125-5.394531 8.109375-6.253906 18.285156-2.097656 27.34375 4.664062 10.164063 14.507812 16.480469 25.691406 16.480469h130.742188c11.183594 0 21.027344-6.316406 25.691406-16.480469 4.15625-9.054687 3.296875-19.226562-2.09375-27.335937 49.375-30.699219 79.769531-84.980469 79.769531-143.378907 0-42.195312-15.660156-82.585937-44.09375-113.730468-2.789062-3.0625-7.535156-3.277344-10.59375-.484375zm-228.910156 114.210937c0-63.332031 51.523437-114.859375 114.859375-114.859375s114.859375 51.527344 114.859375 114.859375c0 43.125-23.449219 81.757813-61.433594 101.703125l-32-37.199219c-5.375-6.246093-13.1875-9.832031-21.429687-9.828124-8.238282 0-16.050782 3.582031-21.425782 9.832031l-31.992187 37.191406c-37.464844-19.738281-61.4375-59.164063-61.4375-101.699219zm192.289063 164.464844c-2.222657 4.839844-6.730469 7.730469-12.058594 7.730469h-130.742188c-5.328125 0-9.835937-2.890625-12.058594-7.730469-2.222656-4.84375-1.472656-10.144531 2-14.183594l65.375-75.992187c2.519532-2.933594 6.1875-4.613281 10.054688-4.613281 3.867188-.003907 7.53125 1.679687 10.054688 4.613281l65.375 75.992187c3.472656 4.039063 4.21875 9.339844 2 14.183594zm0 0"/><path d="m102.261719 189.066406c0-84.769531 68.96875-153.738281 153.738281-153.738281 33.53125 0 65.390625 10.605469 92.140625 30.664063 3.316406 2.484374 8.015625 1.8125 10.5-1.5s1.8125-8.015626-1.5-10.5c-29.367187-22.023438-64.339844-33.664063-101.140625-33.664063-93.042969 0-168.738281 75.695313-168.738281 168.738281 0 24.785156 5.265625 48.679688 15.644531 71.019532 1.273438 2.734374 3.980469 4.34375 6.808594 4.34375 1.058594 0 2.132812-.226563 3.152344-.703126 3.757812-1.746093 5.390624-6.203124 3.644531-9.960937-9.457031-20.34375-14.25-42.113281-14.25-64.699219zm0 0"/><path d="m512 65.972656v-23.542968c0-23.398438-19.03125-42.429688-42.429688-42.429688-23.394531 0-42.425781 19.03125-42.425781 42.429688v23.542968c0 16.527344 9.503907 30.867188 23.328125 37.867188v80.417968c-6.476562 2.691407-11.046875 9.078126-11.046875 16.515626v147.214843c0 16.621094 13.523438 30.144531 30.144531 30.144531 16.621094 0 30.144532-13.519531 30.144532-30.144531v-147.214843c0-7.4375-4.566406-13.824219-11.042969-16.515626v-80.417968c13.824219-7 23.328125-21.339844 23.328125-37.867188zm-69.855469 0v-23.542968c0-15.125 12.304688-27.429688 27.425781-27.429688 15.125 0 27.429688 12.304688 27.429688 27.429688v23.542968c0 15.125-12.304688 27.429688-27.429688 27.429688s-27.425781-12.304688-27.425781-27.429688zm42.570313 282.015625c0 8.351563-6.792969 15.144531-15.144532 15.144531-8.351562 0-15.144531-6.792968-15.144531-15.144531v-147.214843c0-1.589844 1.292969-2.882813 2.882813-2.882813h24.523437c1.589844 0 2.882813 1.292969 2.882813 2.882813zm-11.042969-165.097656h-8.199219v-74.691406c1.347656.128906 2.714844.203125 4.097656.203125 1.386719 0 2.75-.074219 4.101563-.203125zm0 0"/><path d="m77.355469 0c-4.140625 0-7.5 3.359375-7.5 7.5v50.972656h-8.285157v-50.972656c0-4.140625-3.355468-7.5-7.5-7.5-4.140624 0-7.5 3.359375-7.5 7.5v50.972656h-8.285156v-50.972656c0-4.140625-3.355468-7.5-7.5-7.5-4.144531 0-7.5 3.359375-7.5 7.5v50.972656h-8.285156v-50.972656c0-4.140625-3.355469-7.5-7.5-7.5s-7.5 3.359375-7.5 7.5v58.472656c0 16.527344 9.503906 30.867188 23.328125 37.867188v80.417968c-6.476563 2.691407-11.042969 9.078126-11.042969 16.515626v34.136718c0 4.144532 3.355469 7.5 7.5 7.5 4.140625 0 7.5-3.355468 7.5-7.5v-34.136718c0-1.585938 1.292969-2.878907 2.878906-2.878907h24.527344c1.585938 0 2.878906 1.292969 2.878906 2.878907v147.214843c0 8.351563-6.792968 15.148438-15.144531 15.148438-8.351562 0-15.144531-6.796875-15.144531-15.148438v-82.765625c0-4.140625-3.355469-7.5-7.5-7.5-4.140625 0-7.5 3.359375-7.5 7.5v82.765625c0 16.625 13.523438 30.148438 30.148438 30.148438 16.621093 0 30.140624-13.523438 30.140624-30.148438v-147.214843c0-7.4375-4.566406-13.824219-11.042968-16.515626v-80.417968c13.824218-7 23.328125-21.339844 23.328125-37.867188v-58.472656c0-4.140625-3.355469-7.5-7.5-7.5zm-30.828125 182.890625h-8.199219v-74.691406c1.351563.128906 2.71875.203125 4.101563.203125 1.382812 0 2.75-.074219 4.097656-.203125zm-4.097656-89.488281c-12.523438 0-23.117188-8.4375-26.386719-19.929688h52.769531c-3.269531 11.492188-13.859375 19.929688-26.382812 19.929688zm0 0"/></svg>